<svg width="48" height="48" viewBox="0 0 48 48" fill="none" xmlns="http://www.w3.org/2000/svg">
<path d="M24.3678 46.8592L21.6266 43.7188H20.2959L24.0332 47.9998H24.7024L28.4397 43.7188H27.109L24.3678 46.8592Z" fill="#09132C"/>
<path d="M28.7064 37.3662H20.0303V38.3661H28.7064V37.3662Z" fill="#09132C"/>
<path d="M28.7064 32.9707H20.0303V33.9706H28.7064V32.9707Z" fill="#09132C"/>
<path d="M25.0219 20.9678H23.7178V22.2719H25.0219V20.9678Z" fill="#09132C"/>
<path d="M25.0219 23.6328H23.7178V24.9369H25.0219V23.6328Z" fill="#09132C"/>
<path d="M22.9958 6.23145L20.5701 0H19.4941L21.9198 6.23145H22.9958Z" fill="#09132C"/>
<path d="M21.3492 15.5467H19.5585V9.31525H21.3492V8.31152H18.5586V16.5466H21.3492V15.5467Z" fill="#09132C"/>
<path d="M16.2738 35.6668C16.2738 31.4237 18.6729 29.7927 18.7755 29.7243L19.1557 29.4619H17.5323L17.4904 29.5037C16.654 30.3592 15.2549 32.2944 15.2549 35.6668C15.2549 39.0391 16.654 40.9895 17.4904 41.8298L17.5323 41.8716H19.1595L18.7793 41.6092C18.6729 41.5446 16.2738 39.925 16.2738 35.6668Z" fill="#09132C"/>
<path d="M20.9955 27.1116H21.3491V26.1117H20.9955C20.8456 26.1126 20.6979 26.0761 20.5659 26.0052C20.2617 25.8342 20.1058 25.625 20.1058 25.4121C20.1058 25.3095 20.1058 25.1954 20.1058 25.0776C20.1058 24.3742 20.14 23.5035 19.7484 22.9484C20.1286 22.3972 20.1286 21.5265 20.1058 20.8193C20.1058 20.7015 20.1058 20.5912 20.1058 20.4886C20.1058 20.2643 20.2617 20.0666 20.5659 19.8955C20.6979 19.8247 20.8456 19.788 20.9955 19.789H21.3491V18.7891H20.9955C20.6754 18.788 20.3602 18.8678 20.0792 19.021C19.7972 19.1522 19.5568 19.3585 19.3844 19.6174C19.212 19.8763 19.1143 20.1778 19.1021 20.4886C19.1021 20.5912 19.1021 20.7053 19.1021 20.8422C19.1021 21.306 19.1287 22.169 18.9006 22.401C18.9006 22.42 18.855 22.4504 18.7523 22.4504H18.2314V23.4503H18.7523C18.855 23.4503 18.8854 23.4807 18.9006 23.4997C19.1287 23.7317 19.1097 24.5947 19.1021 25.0776C19.1021 25.1954 19.1021 25.3095 19.1021 25.4121C19.1143 25.7229 19.212 26.0243 19.3844 26.2832C19.5568 26.5422 19.7972 26.7485 20.0792 26.8797C20.3602 27.0329 20.6754 27.1127 20.9955 27.1116Z" fill="#09132C"/>
<path d="M14.2549 17.4737V16.3711L1.47266 22.2604V23.093L14.2549 28.9823V27.8835L2.95923 22.6786L14.2549 17.4737Z" fill="#09132C"/>
<path d="M16.1371 22.4202H14.4376V20.7207H13.4339V22.4202H11.7344V23.4239H13.4339V25.1234H14.4376V23.4239H16.1371V22.4202Z" fill="#09132C"/>
<path d="M29.242 0H28.1698L25.7441 6.23145H26.8163L29.242 0Z" fill="#09132C"/>
<path d="M27.4248 15.5467V16.5466H30.2155V8.31152H27.4248V9.31525H29.2155V15.5467H27.4248Z" fill="#09132C"/>
<path d="M31.1927 29.4619H29.5654L29.9456 29.7243C30.0483 29.7927 32.4473 31.4123 32.4473 35.6668C32.4473 39.9212 30.0483 41.5446 29.9456 41.6092L29.5654 41.8716H31.1927L31.2345 41.8298C32.0671 40.9743 33.4701 39.0391 33.4701 35.6668C33.4701 32.2944 32.0671 30.344 31.2345 29.5037L31.1927 29.4619Z" fill="#09132C"/>
<path d="M34.4854 16.3711V17.4737L45.7772 22.6786L34.4854 27.8835V28.9823L47.2638 23.093V22.2604L34.4854 16.3711Z" fill="#09132C"/>
<path d="M29.6679 25.0585C29.6679 24.5947 29.6413 23.7316 29.8656 23.4997C29.8849 23.4808 29.9083 23.4665 29.934 23.4579C29.9597 23.4494 29.987 23.4468 30.0139 23.4503H30.5005V22.4504H30.0139C29.987 22.4539 29.9597 22.4513 29.934 22.4427C29.9083 22.4342 29.8849 22.4199 29.8656 22.4009C29.6413 22.169 29.6565 21.306 29.6679 20.8421C29.6679 20.7167 29.6679 20.5988 29.6679 20.4886C29.6569 20.1774 29.5598 19.8755 29.3872 19.6163C29.2147 19.3572 28.9736 19.1511 28.6908 19.021C28.4109 18.8684 28.0971 18.7886 27.7783 18.7891H27.4209V19.789H27.7783C27.9281 19.788 28.0758 19.8246 28.2079 19.8955C28.5121 20.0665 28.668 20.2757 28.668 20.4886C28.668 20.5912 28.668 20.7015 28.668 20.8193C28.668 21.5265 28.6337 22.3971 29.0253 22.9484C28.6451 23.5035 28.6451 24.3742 28.668 25.0813C28.668 25.1992 28.668 25.3095 28.668 25.4121C28.668 25.6364 28.5121 25.8341 28.2079 26.0052C28.0758 26.076 27.9281 26.1126 27.7783 26.1117H27.4209V27.1116H27.7783C28.0971 27.112 28.4109 27.0323 28.6908 26.8797C28.9733 26.7492 29.2142 26.543 29.3867 26.284C29.5592 26.0249 29.6565 25.7231 29.6679 25.4121C29.6717 25.3018 29.6717 25.184 29.6679 25.0585Z" fill="#09132C"/>
<path d="M35.3028 25.1234V23.4239H37.0023V22.4202H35.3028V20.7207H34.3029V22.4202H32.5996V23.4239H34.3029V25.1234H35.3028Z" fill="#09132C"/>
</svg>
